HIERARCHY
ROOT Hips
{
	OFFSET -14.64140 90.27770 -84.91600
	CHANNELS 6 Xposition Yposition Zposition Zrotation Xrotation Yrotation
	JOINT Spine
	{
		OFFSET 0.00000 13.20850 -1.60436
		CHANNELS 3 Zrotation Xrotation Yrotation
		JOINT Spine1
		{
			OFFSET 0.00000 8.61716 0.00000
			CHANNELS 3 Zrotation Xrotation Yrotation
			JOINT Spine2
			{
				OFFSET 0.00000 8.61717 0.00000
				CHANNELS 3 Zrotation Xrotation Yrotation
				JOINT Spine3
				{
					OFFSET 0.00000 8.61717 0.00000
					CHANNELS 3 Zrotation Xrotation Yrotation
					JOINT Neck
					{
						OFFSET 0.00000 11.07920 1.10792
						CHANNELS 3 Zrotation Xrotation Yrotation
						JOINT Neck1
						{
							OFFSET 0.00000 7.08032 0.00000
							CHANNELS 3 Zrotation Xrotation Yrotation
							JOINT Head
							{
								OFFSET 0.00000 7.08031 0.00000
								CHANNELS 3 Zrotation Xrotation Yrotation
								End site
								{
									OFFSET 0.00000 0.00000 0.00000
								}
							}
						}
					}
					JOINT RightShoulder
					{
						OFFSET -0.01000 7.91373 5.19711
						CHANNELS 3 Zrotation Xrotation Yrotation
						JOINT RightArm
						{
							OFFSET -18.41580 0.00000 0.00000
							CHANNELS 3 Zrotation Xrotation Yrotation
							JOINT RightForeArm
							{
								OFFSET -29.11090 0.00000 0.00000
								CHANNELS 3 Zrotation Xrotation Yrotation
								JOINT RightHand
								{
									OFFSET -24.65040 0.00000 0.00000
									CHANNELS 3 Zrotation Xrotation Yrotation
									JOINT RightHandThumb1
									{
										OFFSET -5.35114 -0.85590 3.97906
										CHANNELS 3 Zrotation Xrotation Yrotation
										JOINT RightHandThumb2
										{
											OFFSET -4.52789 0.00000 0.00000
											CHANNELS 3 Zrotation Xrotation Yrotation
											JOINT RightHandThumb3
											{
												OFFSET -2.46976 0.00000 0.00000
												CHANNELS 3 Zrotation Xrotation Yrotation
												End site
												{
													OFFSET 0.00000 0.00000 0.00000
												}
											}
										}
									}
									JOINT RightHandIndex1
									{
										OFFSET -14.26970 0.00000 2.88139
										CHANNELS 3 Zrotation Xrotation Yrotation
										JOINT RightHandIndex2
										{
											OFFSET -5.48836 0.00000 0.00000
											CHANNELS 3 Zrotation Xrotation Yrotation
											JOINT RightHandIndex3
											{
												OFFSET -3.01859 0.00000 0.00000
												CHANNELS 3 Zrotation Xrotation Yrotation
												End site
												{
													OFFSET 0.00000 0.00000 0.00000
												}
											}
										}
									}
									JOINT RightHandMiddle1
									{
										OFFSET -14.26970 0.00000 -0.09147
										CHANNELS 3 Zrotation Xrotation Yrotation
										JOINT RightHandMiddle2
										{
											OFFSET -6.17441 0.00000 0.00000
											CHANNELS 3 Zrotation Xrotation Yrotation
											JOINT RightHandMiddle3
											{
												OFFSET -3.56743 0.00000 0.00000
												CHANNELS 3 Zrotation Xrotation Yrotation
												End site
												{
													OFFSET 0.00000 0.00000 0.00000
												}
											}
										}
									}
									JOINT RightHandRing1
									{
										OFFSET -12.69180 0.00000 -3.06433
										CHANNELS 3 Zrotation Xrotation Yrotation
										JOINT RightHandRing2
										{
											OFFSET -5.62556 0.00000 0.00000
											CHANNELS 3 Zrotation Xrotation Yrotation
											JOINT RightHandRing3
											{
												OFFSET -3.56744 0.00000 0.00000
												CHANNELS 3 Zrotation Xrotation Yrotation
												End site
												{
													OFFSET 0.00000 0.00000 0.00000
												}
											}
										}
									}
									JOINT RightHandPinky1
									{
										OFFSET -11.11390 0.00000 -6.03719
										CHANNELS 3 Zrotation Xrotation Yrotation
										JOINT RightHandPinky2
										{
											OFFSET -4.52789 0.00000 0.00000
											CHANNELS 3 Zrotation Xrotation Yrotation
											JOINT RightHandPinky3
											{
												OFFSET -2.46976 0.00000 0.00000
												CHANNELS 3 Zrotation Xrotation Yrotation
												End site
												{
													OFFSET 0.00000 0.00000 0.00000
												}
											}
										}
									}
								}
							}
						}
					}
					JOINT LeftShoulder
					{
						OFFSET 0.01000 7.91373 5.19711
						CHANNELS 3 Zrotation Xrotation Yrotation
						JOINT LeftArm
						{
							OFFSET 18.41580 0.00000 0.00000
							CHANNELS 3 Zrotation Xrotation Yrotation
							JOINT LeftForeArm
							{
								OFFSET 29.11090 0.00000 0.00000
								CHANNELS 3 Zrotation Xrotation Yrotation
								JOINT LeftHand
								{
									OFFSET 24.65040 0.00000 0.00000
									CHANNELS 3 Zrotation Xrotation Yrotation
									JOINT LeftHandThumb1
									{
										OFFSET 5.35114 -0.85590 3.97906
										CHANNELS 3 Zrotation Xrotation Yrotation
										JOINT LeftHandThumb2
										{
											OFFSET 4.52789 0.00000 0.00000
											CHANNELS 3 Zrotation Xrotation Yrotation
											JOINT LeftHandThumb3
											{
												OFFSET 2.46977 0.00000 0.00000
												CHANNELS 3 Zrotation Xrotation Yrotation
												End site
												{
													OFFSET 0.00000 0.00000 0.00000
												}
											}
										}
									}
									JOINT LeftHandIndex1
									{
										OFFSET 14.26970 0.00000 2.88139
										CHANNELS 3 Zrotation Xrotation Yrotation
										JOINT LeftHandIndex2
										{
											OFFSET 5.48836 0.00000 0.00000
											CHANNELS 3 Zrotation Xrotation Yrotation
											JOINT LeftHandIndex3
											{
												OFFSET 3.01859 0.00000 0.00000
												CHANNELS 3 Zrotation Xrotation Yrotation
												End site
												{
													OFFSET 0.00000 0.00000 0.00000
												}
											}
										}
									}
									JOINT LeftHandMiddle1
									{
										OFFSET 14.26970 0.00000 -0.09147
										CHANNELS 3 Zrotation Xrotation Yrotation
										JOINT LeftHandMiddle2
										{
											OFFSET 6.17440 0.00000 0.00000
											CHANNELS 3 Zrotation Xrotation Yrotation
											JOINT LeftHandMiddle3
											{
												OFFSET 3.56744 0.00000 0.00000
												CHANNELS 3 Zrotation Xrotation Yrotation
												End site
												{
													OFFSET 0.00000 0.00000 0.00000
												}
											}
										}
									}
									JOINT LeftHandRing1
									{
										OFFSET 12.69180 0.00000 -3.06433
										CHANNELS 3 Zrotation Xrotation Yrotation
										JOINT LeftHandRing2
										{
											OFFSET 5.62556 0.00000 0.00000
											CHANNELS 3 Zrotation Xrotation Yrotation
											JOINT LeftHandRing3
											{
												OFFSET 3.56744 0.00000 0.00000
												CHANNELS 3 Zrotation Xrotation Yrotation
												End site
												{
													OFFSET 0.00000 0.00000 0.00000
												}
											}
										}
									}
									JOINT LeftHandPinky1
									{
										OFFSET 11.11390 0.00000 -6.03719
										CHANNELS 3 Zrotation Xrotation Yrotation
										JOINT LeftHandPinky2
										{
											OFFSET 4.52789 0.00000 0.00000
											CHANNELS 3 Zrotation Xrotation Yrotation
											JOINT LeftHandPinky3
											{
												OFFSET 2.46976 0.00000 0.00000
												CHANNELS 3 Zrotation Xrotation Yrotation
												End site
												{
													OFFSET 0.00000 0.00000 0.00000
												}
											}
										}
									}
								}
							}
						}
					}
					JOINT pCube4
					{
						OFFSET 0.00000 10.91090 1.10792
						CHANNELS 3 Zrotation Xrotation Yrotation
						End site
						{
							OFFSET 0.00000 0.00000 0.00000
						}
					}
				}
			}
		}
	}
	JOINT RightUpLeg
	{
		OFFSET -9.98441 0.00000 0.00000
		CHANNELS 3 Zrotation Xrotation Yrotation
		JOINT RightLeg
		{
			OFFSET 0.00000 -42.11790 0.00000
			CHANNELS 3 Zrotation Xrotation Yrotation
			JOINT RightFoot
			{
				OFFSET 0.00000 -45.00020 -0.00001
				CHANNELS 3 Zrotation Xrotation Yrotation
				JOINT RightForeFoot
				{
					OFFSET 0.00000 -3.74820 0.00000
					CHANNELS 3 Zrotation Xrotation Yrotation
					JOINT RightToeBase
					{
						OFFSET 0.00000 0.06325 14.43120
						CHANNELS 3 Zrotation Xrotation Yrotation
						End site
						{
							OFFSET 0.00000 0.00000 0.00000
						}
					}
				}
			}
		}
	}
	JOINT LeftUpLeg
	{
		OFFSET 9.98441 0.00000 0.00000
		CHANNELS 3 Zrotation Xrotation Yrotation
		JOINT LeftLeg
		{
			OFFSET 0.00000 -42.11800 0.00000
			CHANNELS 3 Zrotation Xrotation Yrotation
			JOINT LeftFoot
			{
				OFFSET 0.00000 -45.00070 0.00000
				CHANNELS 3 Zrotation Xrotation Yrotation
				JOINT LeftForeFoot
				{
					OFFSET 0.00000 -3.74824 0.00000
					CHANNELS 3 Zrotation Xrotation Yrotation
					JOINT LeftToeBase
					{
						OFFSET 0.00000 0.06325 14.43110
						CHANNELS 3 Zrotation Xrotation Yrotation
						End site
						{
							OFFSET 0.00000 0.00000 0.00000
						}
					}
				}
			}
		}
	}
}
MOTION
Frames: 4
Frame Time: 0.050000
-0.04655174428519104 -0.007152163083686081 0.02932517785282107 -0.042078663392282584 0.006505245992595549 -0.005850520151383761 -3.697559449197451 3.048044726465111 -0.6162274287069975 -0.8128978692845572 3.279900683043999 0.3678613127557611 -0.9421577813634865 -1.3385513810321943 -2.2633362046036316 -0.3121465291117385 0.4472903244217251 -0.9987221996658767 -0.8513386778319716 10.466439787760233 1.5204978152109507 -0.12358136120615006 -0.8540106253342353 1.797782125851788 -0.5074504518825289 -15.745772902699771 0.22595607687052788 0.4750876933102287 0.6204520801989623 -11.334259093369763 69.11244767693407 23.71664530860209 9.078414756366314 20.595501521477722 5.850693116074545 81.88125201211803 25.67166527155956 -0.21544008834861517 -6.270865232279705 4.499810983365892 -0.14544181697482828 -1.5851721255308264 0.03628843090006758 -0.013469062041662464 -56.211781289765895 0.007678102466605582 0.035990550767401944 -56.21900537517932 -38.8094891595069 -0.03135691587184502 -0.030146110603141048 -0.0341792632104604 0.037377261170051246 -0.03424044016075655 0.029927169348163734 0.030217959919886246 0.01419346092075085 -36.710554625333934 -0.0001414755364186327 -0.025195612652542786 -0.009466111119047991 -0.014827779864902791 0.039416751872374006 -0.03040797150180883 -0.02749686316960234 -0.022805587414939772 -19.78348978526433 -0.02487725231990604 0.009809901984203114 -0.02209061585674934 0.014990751200787775 -0.041946501051269375 0.029842166680420296 0.026385926504152803 0.005507044868998051 24.039354394333138 -0.018184866593941473 0.004750637546218368 28.828036422587214 -0.042235668605885936 0.03866590466982789 28.84925554473754 -0.02321917134834219 -0.007708023912488422 3.5877371914084764 1.117587720092056 9.924392305069153 -62.79381704664114 26.097191386752396 -21.610123715040743 -42.09592912468863 6.437830953262509 -82.09205022565254 -16.26751328941047 1.5289285103832024 -0.7295412625874018 -0.43403618589015386 0.06797029516397589 -8.149644125599098 -0.0193163299019766 0.031099433869034212 44.55844417841421 0.011397188393884069 -0.00659466990585894 44.58633480282807 12.434824857882 0.02981007610429937 -0.01918376857834956 -0.0029215053907542796 -0.018344911991321693 -0.020967489349497877 -0.040427376503721205 -0.033713345412815975 -0.03612725746981968 11.059796831649136 -0.038620310816632475 0.03531987390122327 -0.027522886773331152 -0.015258480819003193 0.03488219333886625 -0.02749105996965161 -0.023127106659153938 0.04137708695781055 4.793688932840106 -0.010896034017419502 -0.010400514817447123 0.0009081050209050817 0.01716960500933086 -0.018751200342738646 -0.010757846777992198 0.03464371821228606 -0.0062512594940736365 -5.600785013939215 0.030090074390701552 0.03844913187296395 -6.708085603012685 0.039627989106544075 -0.033481084017690725 -6.740418194468947 -0.03218991712176637 0.022169827788332257 0.017127550121535898 0.0228585394073457 -0.04086260240244442 8.006534748537984 3.4742497521455586 -19.252452193065377 -0.014176183835259612 10.431114686101148 0.010023871731896306 -5.648488484738404 -15.67509492135069 3.172195938047551 0.029812751404007642 -0.021685901470190862 0.0423603777491788 0.01909363385599884 4.705632892917027 0.027026043849571087 12.443077721436946 -8.266198577891672 6.92928911875243 -0.023016430110261395 46.3451728905212 -0.033312898199618336 -4.290190262148119 -14.700792496363631 -3.8601145681507294 0.02827033204019861 -0.027375965963359374 0.01962692524867246 -0.03879766819219684 -10.708486254366065 -0.023536713023461584 
-0.014766059921321587 0.04690280674572589 -0.023098387295304085 0.023658236920144442 -0.002330632403250201 0.03949252079643035 -3.7669813269651056 3.0644234186998314 -0.5875191096612705 -0.7886651831560083 3.375745163751735 0.35996818703793604 -0.9893504920600127 -1.3461759767149675 -1.86500294617866 -0.38670434292070816 0.4152144101686059 -0.9416599989509761 -0.7799286988944473 10.413250020050333 1.5730355795029312 -0.09944375653763748 -0.9109115031769291 1.6673645577328962 -0.4945815434766626 -15.85352135834944 0.15045076867331816 0.4327957232068932 0.6509238051265671 -11.623683658823367 69.64501905480807 24.208204604290074 7.079781253391608 16.45304335287592 5.747581704809676 75.3290363734878 26.089826098340353 -0.1507102740910187 -5.917857677023936 4.5292572657687815 -0.10076982645188598 -1.5533083358770297 0.01690180360520215 0.03462590182207876 -56.27187391133608 -0.006879674040772902 0.0061322761137994055 -56.24179926528319 -38.740402366560325 0.01726198898229423 0.032331354298732164 -0.0062526113229776125 0.005044091538029656 -0.04569838698052001 0.002406430634132757 -0.046026402685078856 -0.009472739668929291 -36.69583531119575 -0.005931909767940793 0.014130417680986686 0.005568344031586584 -0.038983268893486425 -0.025451649322381968 -0.005187197115552709 -0.02420533230981733 0.013292484638580274 -19.716760730310988 -0.017797144152623037 0.037264240065559645 -0.04678884836175744 0.001598936164913904 -0.0022804592341772365 0.007859517302682023 -0.03744405755651851 0.023107032680362863 24.061347274292665 0.000432226406838328 -0.02544140829502329 28.83286643978437 0.009122128974208199 0.03551673398480419 28.8236414629612 0.015171809460833975 -0.028039739149949495 3.026686352686116 1.0769086302130502 10.39136811886964 -64.84521231287353 25.922040571862663 -16.77288592507853 -38.993318025715254 6.9318672794443374 -75.86267915675374 -15.87606443359361 1.947291476401033 -0.7213355331050095 -0.5096706633808878 0.024454851370046563 -8.106136929495978 0.006973398557265209 0.031110866084003562 44.601443411357145 -0.04169451445692164 0.04288840891159287 44.56467522232712 12.456050784526662 -0.002162481441571008 0.003605283648247846 0.030965740124832657 0.047536774452065965 -0.015731170899122716 -0.0001871228159309324 0.016610123417952847 -0.013528353867720283 11.141378423085321 0.009051665666708638 0.03261245927841104 -0.010659548858813376 -0.030439115219982275 -0.03310006171266908 -0.04346276679565289 0.006737158520926912 0.0004995577437135534 4.79465716645104 -0.02849294458356309 0.04575716826542446 -0.004361314509963946 0.0237763973938188 0.042343492959784665 -0.029133526426869595 0.03442728182482465 0.0429762198477396 -5.599865909388153 0.03310212396581592 0.005601263214187479 -6.765085257393348 0.04529314396230641 -0.0063654338009207796 -6.730741904428024 -0.02571012664474212 -0.025068046108580214 0.040594716114920465 0.03355810819437933 0.005074872733835737 8.080548459125232 3.516423966620698 -19.216394574293712 -0.04213487583764933 10.370226367607657 0.007255854880280903 -5.654130887934655 -15.705127925532546 3.2001017175915134 0.013668236793693106 0.02410098254386753 0.036381670952687066 0.04799467928802753 4.74390706387475 -0.032806892201169606 12.424237402674445 -8.23529661411892 6.8382146208548376 0.04136968936188237 46.367382937197036 0.034321778601665305 -4.321983799414867 -14.706496776570585 -3.84717725994414 0.013666658483344613 -0.04873145371459543 0.015438220527415744 -0.02202816682407571 -10.781660426581716 -0.010517455924589539 
0.008302529468567823 0.004176911218718921 -0.030397012898045767 -0.029965295976513456 -0.015588065860611245 -0.03255714994288722 -3.777808306194331 3.013487227337898 -0.6351028949623008 -0.8134105923190712 3.3674776949674374 0.34408730498961804 -1.0052623285158961 -1.3998646576798977 -1.6698221015036363 -0.3872643102700351 0.46141890744086045 -0.9832088046783823 -0.760306156960875 10.341552366190358 1.635553602541994 -0.13109068375152877 -0.9757255988457884 1.5504872316362166 -0.4627714225814303 -15.981088689762515 0.12580475651284245 0.24890889515915549 0.6742366550970339 -11.918558470174736 70.0388344779745 24.616300775990354 5.529607472501485 13.061373533350023 5.239948004389247 69.92051991709478 26.531565009988523 -0.23466428753734986 -5.7098748936468064 4.526583939946976 -0.1424713064208523 -1.6361251169170894 -0.026642594244569648 -0.024560079970092366 -56.25976235665746 0.04559707232878703 0.03750157226137299 -56.26435468378822 -38.805404166838954 -0.04443986520419628 0.027212640166725248 -0.014051496204390612 0.027520581708556105 -0.014695500268761786 -0.018938262110632986 0.014546705953064301 0.027175411310042693 -36.70580041518114 -0.03659722892573472 -0.008794754312140213 0.03713958444766152 -0.015778879360364654 -0.004530659626113664 0.03996425193461161 -0.042534579457276976 -0.00636408188076507 -19.731911016768507 -0.029748738966066175 0.0036535910088892182 0.036291300236776486 -0.017836365609543815 0.014760764436389571 0.020473067413561946 -0.002328048389321181 0.00425835389884125 24.08270854853934 -0.0044673407135057555 0.03989728063633631 28.84529141172193 -0.0004884572156105066 -0.04593200324061976 28.83126002133045 0.03927365206189668 -0.0036650828118078784 2.7156319132302134 1.0137209104500193 10.70087455968736 -66.57594183695767 25.79973887580328 -13.035722022832136 -37.0161765858418 7.043758219624117 -70.38177624468828 -15.595863851424829 2.1294824279882745 -0.7080363765753906 -0.45053891786074884 0.06410532741130026 -8.079381387456507 0.03584094585217171 -0.029751888803168824 44.566973599251725 -0.019615016503433332 -0.02824805575586453 44.56848501418236 12.447447303679189 -0.030961886471089026 -0.03878875156900625 -0.04234822255515725 -0.01585014903342922 0.013776390429952786 0.049791870723949035 -0.02724138459241064 0.0022694310709653405 11.079322038955137 0.002334641801203323 0.0027760799101200656 0.010890047775620951 0.014010438299461627 0.020306055054215875 -0.010956328246653248 0.024961135475198157 -0.044265146735256104 4.728501145668935 0.021236806260500344 -0.0005860490619973484 -0.008054120784786086 -0.045763951318147825 -0.03360080565731529 0.02615075865922836 -0.025310436425773786 0.03792158255856961 -5.552945369920508 0.036203813919179956 0.02581386701701079 -6.722160322355358 0.006771813691946045 -0.0041967915172803644 -6.7262132778638115 0.038972748068274186 -0.0015810001861804234 0.00046179259180225714 0.03223526795710099 0.02477508141015603 8.057745563149854 3.5179519550064806 -19.17209702888294 -0.017418337399877862 10.427090015084358 0.029654398805636653 -5.634991108441584 -15.684340176548625 3.224786154947475 0.04421668899621676 -0.00036716619507650274 -0.04897267288173547 0.025390273981148834 4.691194056862582 -0.04622066015765213 12.47059463173628 -8.208193612894556 6.863067239115507 -0.019096715386262116 46.35492763595789 -0.008228574311674688 -4.291832481771552 -14.737013895119086 -3.814758130819414 -0.028890855852300473 0.006776242772198123 0.025196195227238122 0.015245424667344586 -10.70042894862935 0.0038363588146698765 
-0.02740704598146015 0.031214370030725663 -0.03605704891350179 0.013376470682650075 -0.04304531516674853 0.039641127628297565 -3.7742098214359823 2.842883186424448 -0.6307311408588356 -0.8645548129332554 3.35071052681071 0.40963853121606747 -1.1014421699622607 -1.4531224526061761 -1.5241665120125365 -0.4437028735444756 0.3716046069589795 -0.9775923867363242 -0.6794243776428456 10.306592246292958 1.5123762661579356 -0.07512711803608703 -0.9416900855005755 1.2906721821846028 -0.36876067834721427 -15.956058920286061 0.158913949172964 -0.007714261881924112 0.8089973093105065 -12.102345458375652 70.46612282290873 24.544921869030556 4.270932448522802 9.864883222146902 3.842535380011777 67.02374944538114 26.370234625047463 -0.2019571503398194 -5.366902073606236 4.572693748120864 -0.16308363869300213 -1.5955455006431591 -0.0006711732771043571 0.0002553195110764641 -56.2637700977415 -0.043744756208348654 -0.02268298439868813 -56.276447094193905 -38.746608245620656 0.046580301116819794 0.014642469540302232 0.019672970720813605 -0.013055395144092095 0.006211686796424361 -0.029656077570122445 -0.024201628438217243 -0.006698705067217254 -36.71529293606826 0.0037209695568272924 0.0213485520607628 -0.028708908809963126 -0.034346098305272015 0.03953186152748786 0.008889909935792766 0.03194548610007669 -0.025139672460573352 -19.76695827531032 0.011161696582387168 0.037484773237725255 -0.029685133932789296 0.018704636962628144 -0.004300266576695467 0.014735665299314527 0.038018026616988075 -0.01990423093076944 24.05561616509524 -0.048445261878156426 0.01745323851313334 28.866709920918918 0.017312392779421332 -0.004119211960441875 28.860698236346646 0.04714013573135952 0.025248543790690633 2.5596960244701816 0.9898414269904541 10.939057898904782 -67.73092578204721 25.786270409467843 -10.655738162870112 -34.112774424289775 6.369792292304506 -66.49092354014837 -15.111487800470847 2.314840657777687 -0.6366183891104746 -0.43268773917062764 0.059659724028226585 -8.148856718625193 0.004256767898230356 -0.0483096065550379 44.556288591722996 0.01268360038724257 0.04199204367145155 44.59623852828387 12.476751134630907 -0.013853362591630105 0.014726658293637682 0.0192241552829746 -0.014722612558855165 -0.02121867592830345 -0.045270142738098186 0.01029879520471501 -0.04235188225450371 11.108891729438236 0.047153202939004865 0.04585789348709545 0.017252201581488054 0.04067540489137095 0.046688975012149594 -0.008865786828273232 -0.007415751777605401 0.03931867714411014 4.729390129760007 0.020322583344203886 -0.033028819381126555 -0.02365670393484018 -0.027004631957972994 0.015432380311933652 -0.029647182159419756 0.016668519915992535 0.007698883331118567 -5.576034075295985 0.015388507577116156 0.027334940481809917 -6.7025484045980575 -0.019033715178897875 0.015746080255894662 -6.690536477958212 0.02828961700499362 -0.03361451207147823 0.03186500308105136 -0.017937856098709216 0.01642112512949859 8.051589225963518 3.464245110807204 -19.223601465997472 0.028886681246975944 10.42689503618316 -0.01684837410675463 -5.622869046615343 -15.660085236339048 3.1766817558413543 0.0006532837357870138 0.010295801479605847 0.002023375568574409 0.03206795777538016 4.656952475691699 0.048776492742787426 12.498525255656437 -8.28390809951155 6.9300555971301785 0.009854442081735157 46.342529127544125 -0.007807853438941116 -4.360217023432487 -14.781139617165065 -3.828797565317081 -0.013379709504110255 0.009217183279558356 0.03423145098241885 -0.02023947617099914 -10.718828722568102 -0.013873684680343513 
